{"title":"Vacancy.2.The.First.Cut.2008.720p.WEB-DL.DD5.1.H264-FGT","uid":12110636,"size":2696531293,"categoryP":"video","categoryS":"hd___movies","magnet":"?xt=urn:btih:b1afda6581f832513c9cd8bc0ccaed81dc28cc0c&amp;dn=Vacancy.2.The.First.Cut.2008.720p.WEB-DL.DD5.1.H264-FGT&amp;tr=udp%3A%2F%2Ftracker.openbittorrent.com%3A80&amp;tr=udp%3A%2F%2Fopen.demonii.com%3A1337&amp;tr=udp%3A%2F%2Ftracker.coppersurfer.tk%3A6969&amp;tr=udp%3A%2F%2Fexodus.desync.com%3A6969","seeders":0,"leechers":0,"uploader":null,"files":3,"time":1436563140,"description":"Video\nID                                       : 1\nFormat                                   : AVC\nFormat/Info                              : Advanced Video Codec\nFormat profile                           : &lt;a class=&quot;__cf_email__&quot; href=&quot;/cdn-cgi/l/email-protection&quot; data-cfemail=&quot;4c04252b240c007f627d&quot;&gt;[email&amp;#160;protected]&lt;/a&gt;&lt;script data-cfhash='f9e31' type=&quot;text/javascript&quot;&gt;\n/* &lt;![CDATA[ */!function(){try{var t=&quot;currentScript&quot;in document?document.currentScript:function(){for(var t=document.getElementsByTagName(&quot;script&quot;),e=t.length;e--;)if(t[e].getAttribute(&quot;data-cfhash&quot;))return t[e]}();if(t&amp;&amp;t.previousSibling){var e,r,n,i,c=t.previousSibling,a=c.getAttribute(&quot;data-cfemail&quot;);if(a){for(e=&quot;&quot;,r=parseInt(a.substr(0,2),16),n=2;a.length-n;n+=2)i=parseInt(a.substr(n,2),16)^r,e+=String.fromCharCode(i);e=document.createTextNode(e),c.parentNode.replaceChild(e,c)}t.parentNode.removeChild(t);}}catch(u){}}()/* ]]&gt; */&lt;/script&gt;\nFormat settings, CABAC                   : No\nFormat settings, ReFrames                : 2 frames\nCodec ID                                 : V_MPEG4/ISO/AVC\nDuration                                 : 1h 25mn\nBit rate                                 : 3 714 Kbps\nWidth                                    : 1 280 pixels\nHeight                                   : 720 pixels\nDisplay aspect ratio                     : 16:9\nFrame rate mode                          : Constant\nFrame rate                               : 23.976 fps\nColor space                              : YUV\nChroma subsampling                       : 4:2:0\nBit depth                                : 8 bits\nScan type                                : Progressive\nBits/(Pixel*Frame)                       : 0.168\nStream size                              : 2.23 GiB (89%)\nTitle                                    : Vacancy.2.The.First.Cut.2008.720p.WEB-DL.DD5.1.H264-FGT\nLanguage                                 : English\nDefault                                  : Yes\nForced                                   : No\nColor range                              : Limited\nColor primaries                          : BT.709\nTransfer characteristics                 : BT.709\nMatrix coefficients                      : BT.709\n\nAudio\nID                                       : 2\nFormat                                   : AC-3\nFormat/Info                              : Audio Coding 3\nMode extension                           : CM (complete main)\nFormat settings, Endianness              : Big\nCodec ID                                 : A_AC3\nDuration                                 : 1h 25mn\nBit rate mode                            : Constant\nBit rate                                 : 384 Kbps\nChannel(s)                               : 6 channels\nChannel positions                        : Front: L C R, Side: L R, LFE\nSampling rate                            : 48.0 KHz\nBit depth                                : 16 bits\nCompression mode                         : Lossy\nStream size                              : 236 MiB (9%)\nTitle                                    : Vacancy.2.The.First.Cut.2008.720p.WEB-DL.DD5.1.H264-FGT\nLanguage                                 : English\nDefault                                  : Yes\nForced                                   : No\n\nMenu\n00:00:00.000                             : en:Chapter 1\n00:03:16.000                             : en:Chapter 2\n00:04:31.000                             : en:Chapter 3\n00:07:52.000                             : en:Chapter 4\n00:09:43.000                             : en:Chapter 5\n00:12:49.000                             : en:Chapter 6\n00:15:17.000                             : en:Chapter 7\n00:18:40.000                             : en:Chapter 8\n00:20:53.000                             : en:Chapter 9\n00:24:21.000                             : en:Chapter 10\n00:28:44.000                             : en:Chapter 11\n00:32:39.000                             : en:Chapter 12\n00:36:49.000                             : en:Chapter 13\n00:40:21.000                             : en:Chapter 14\n00:42:06.000                             : en:Chapter 15\n00:45:49.000                             : en:Chapter 16\n00:48:32.000                             : en:Chapter 17\n00:51:39.000                             : en:Chapter 18\n00:54:29.000                             : en:Chapter 19\n00:57:19.000                             : en:Chapter 20\n01:00:12.000                             : en:Chapter 21\n01:02:41.000                             : en:Chapter 22\n01:06:28.000                             : en:Chapter 23\n01:08:48.000                             : en:Chapter 24\n01:11:25.000                             : en:Chapter 25\n01:14:57.000                             : en:Chapter 26\n01:18:16.000                             : en:Chapter 27\n01:19:50.000                             : en:Chapter 28","torrent":{"xt":"urn:btih:b1afda6581f832513c9cd8bc0ccaed81dc28cc0c","amp;dn":"Vacancy.2.The.First.Cut.2008.720p.WEB-DL.DD5.1.H264-FGT","amp;tr":["udp%3A%2F%2Ftracker.openbittorrent.com%3A80","udp%3A%2F%2Fopen.demonii.com%3A1337","udp%3A%2F%2Ftracker.coppersurfer.tk%3A6969","udp%3A%2F%2Fexodus.desync.com%3A6969"],"infoHash":"b1afda6581f832513c9cd8bc0ccaed81dc28cc0c","infoHashBuffer":{"type":"Buffer","data":[177,175,218,101,129,248,50,81,60,156,216,188,12,202,237,129,220,40,204,12]},"announce":[],"urlList":[]}}